<svg xmlns="http://www.w3.org/2000/svg" width="24" height="18" viewBox="0 0 24 18" fill="none"><path d="M10.9378 10.9096L0.0348196 2.9796C0.0137174 2.99035 0.0211022 2.98659 0 2.99733V14.9973C0 16.3228 1.07452 17.3973 2.4 17.3973H21.6C22.9255 17.3973 24 16.3228 24 14.9973V2.96859C23.9961 2.96662 23.9975 2.96731 23.9936 2.96533L13.0625 10.9099C12.429 11.3703 11.5711 11.3702 10.9378 10.9096Z" fill="#011232"></path><path d="M13.062 7.94604L22.7451 0.904316C22.4059 0.718715 22.0155 0.603516 21.5995 0.603516H2.39951C1.98351 0.603516 1.59951 0.718716 1.25391 0.904316L10.937 7.94604C11.5704 8.4067 12.4286 8.4067 13.062 7.94604Z" fill="#011232"></path></svg>