<svg xmlns="http://www.w3.org/2000/svg" width="13" height="13" viewBox="0 0 13 13" fill="none"><path d="M11.9593 0.940892L4.93077 1.33527C4.74446 1.34895 4.56276 1.43511 4.42482 1.57521C4.28688 1.71531 4.20374 1.89813 4.19329 2.08429C4.18285 2.27046 4.24594 2.44507 4.36898 2.57052C4.49202 2.69598 4.66516 2.76224 4.85111 2.75503L10.1657 2.45683L0.841459 11.781C0.70084 11.9217 0.615904 12.1065 0.605339 12.2948C0.594773 12.4831 0.659443 12.6594 0.78512 12.7851C0.910798 12.9108 1.08719 12.9755 1.27549 12.9649C1.46379 12.9543 1.64858 12.8694 1.78919 12.7288L11.1134 3.40456L10.8152 8.71913C10.8083 8.81348 10.8202 8.90616 10.8502 8.99176C10.8802 9.07737 10.9278 9.15417 10.9901 9.2177C11.0524 9.28124 11.1282 9.33022 11.2131 9.3618C11.298 9.39337 11.3903 9.40691 11.4846 9.40162C11.5788 9.39633 11.6732 9.37232 11.7622 9.33099C11.8512 9.28965 11.933 9.23183 12.0029 9.16088C12.0727 9.08993 12.1292 9.00728 12.1691 8.91776C12.2089 8.82824 12.2313 8.73364 12.235 8.63947L12.6293 1.61094C12.6399 1.42268 12.5752 1.24633 12.4496 1.12068C12.3239 0.995027 12.1476 0.930356 11.9593 0.940892Z" fill="#C785EC"></path></svg>