<svg xmlns="http://www.w3.org/2000/svg" width="24" height="34" viewBox="0 0 24 34" fill="none"><path d="M12 0.432617C5.38316 0.432617 0 5.81578 0 12.4326C0 20.6442 10.7388 32.6993 11.196 33.2085C11.6255 33.6868 12.3753 33.686 12.804 33.2085C13.2612 32.6993 24 20.6442 24 12.4326C23.9999 5.81578 18.6168 0.432617 12 0.432617ZM12 18.4701C8.67091 18.4701 5.96256 15.7616 5.96256 12.4326C5.96256 9.10346 8.67097 6.39511 12 6.39511C15.329 6.39511 18.0374 9.10352 18.0374 12.4326C18.0374 15.7617 15.329 18.4701 12 18.4701Z" fill="#011232"></path></svg>