<svg xmlns="http://www.w3.org/2000/svg" width="416" height="120" viewBox="0 0 416 120" fill="none"><rect width="416" height="120" rx="20" fill="#F9EDFF"></rect><path d="M38.976 76.64C42.464 76.64 44.432 78.688 44.432 82.336C44.432 85.968 42.512 88 39.072 88H35.472V76.64H38.976ZM36.816 86.688H38.976C41.68 86.688 43.024 85.232 43.024 82.336C43.024 79.408 41.68 77.952 38.976 77.952H36.816V86.688ZM45.9708 83.76C45.9708 81.072 47.4908 79.328 49.8428 79.328C51.7308 79.328 53.3788 80.592 53.5228 83.584L53.5388 84.176H47.3628C47.4908 85.92 48.3708 86.944 49.8428 86.944C50.7708 86.944 51.6028 86.4 51.9868 85.504L53.3948 85.6C52.8988 87.2 51.4748 88.192 49.8428 88.192C47.4908 88.192 45.9708 86.448 45.9708 83.76ZM47.3948 83.008H52.0988C51.8588 81.216 50.8988 80.576 49.8428 80.576C48.4828 80.576 47.6028 81.472 47.3948 83.008ZM60.4729 82.128C60.2809 81.152 59.3209 80.576 58.3609 80.576C57.4009 80.576 56.6329 81.072 56.6329 81.888C56.6489 82.72 57.7209 83.072 58.6809 83.28C60.6169 83.648 62.0089 84.192 62.0089 85.84C62.0089 87.472 60.3289 88.192 58.7129 88.192C56.7129 88.192 55.1769 87.088 55.0489 85.344L56.4249 85.248C56.5849 86.272 57.4169 86.944 58.7129 86.944C59.5769 86.944 60.6329 86.656 60.6329 85.776C60.6329 84.752 59.4169 84.64 58.4409 84.4C56.8729 84.032 55.2729 83.584 55.2729 81.968C55.2569 80.352 56.5689 79.328 58.5049 79.328C60.2009 79.328 61.5769 80.4 61.8489 82.032L60.4729 82.128ZM64.4893 77.6H65.8013V79.52H68.0573V80.688H65.8013V85.76C65.8013 86.48 66.1533 86.832 66.8253 86.832H68.0413V88H66.8253C65.3213 88 64.4893 87.2 64.4893 85.76V80.688H63.2413V79.52H64.4893V77.6ZM70.0319 79.52H71.3439V88H70.0319V79.52ZM69.9999 78.192V76.672H71.3759V78.192H69.9999ZM73.8444 79.52H75.0444L75.0924 80.976C75.5244 79.84 76.5324 79.328 77.7004 79.328C79.6364 79.328 80.5644 80.752 80.5644 82.544V88H79.2524V82.928C79.2524 81.36 78.7244 80.496 77.4284 80.496C76.0524 80.496 75.1564 81.36 75.1564 82.928V88H73.8444V79.52ZM82.7241 82.016C83.0601 80.368 84.3721 79.328 86.1801 79.328C88.3721 79.328 89.5881 80.608 89.5881 82.88V86.288C89.5881 86.672 89.7481 86.832 90.1161 86.832H90.4521V88H89.8921C89.0281 88 88.2761 87.712 88.2921 86.672C87.9241 87.472 86.9641 88.192 85.6201 88.192C83.9401 88.192 82.5801 87.296 82.5801 85.792C82.5801 84.048 83.9081 83.6 85.7641 83.232L88.2761 82.752C88.2601 81.28 87.5721 80.576 86.1801 80.576C85.0921 80.576 84.3721 81.136 84.1161 82.128L82.7241 82.016ZM83.9561 85.792C83.9561 86.48 84.5481 87.04 85.7961 87.024C87.2041 87.024 88.3081 86.032 88.3081 84.064V83.92L86.2761 84.272C85.0121 84.496 83.9561 84.592 83.9561 85.792ZM92.4268 77.6H93.7388V79.52H95.9948V80.688H93.7388V85.76C93.7388 86.48 94.0908 86.832 94.7628 86.832H95.9788V88H94.7628C93.2588 88 92.4268 87.2 92.4268 85.76V80.688H91.1788V79.52H92.4268V77.6ZM97.9694 79.52H99.2814V88H97.9694V79.52ZM97.9374 78.192V76.672H99.3134V78.192H97.9374ZM105.265 88.192C102.913 88.192 101.393 86.448 101.393 83.76C101.393 81.072 102.913 79.328 105.265 79.328C107.617 79.328 109.137 81.072 109.137 83.76C109.137 86.448 107.617 88.192 105.265 88.192ZM102.769 83.76C102.769 85.744 103.681 86.944 105.265 86.944C106.833 86.944 107.761 85.744 107.761 83.76C107.761 81.776 106.833 80.576 105.265 80.576C103.681 80.576 102.769 81.776 102.769 83.76ZM111.173 79.52H112.373L112.421 80.976C112.853 79.84 113.861 79.328 115.029 79.328C116.965 79.328 117.892 80.752 117.892 82.544V88H116.581V82.928C116.581 81.36 116.053 80.496 114.757 80.496C113.381 80.496 112.485 81.36 112.485 82.928V88H111.173V79.52ZM125.098 82.128C124.906 81.152 123.946 80.576 122.986 80.576C122.026 80.576 121.258 81.072 121.258 81.888C121.274 82.72 122.346 83.072 123.306 83.28C125.242 83.648 126.634 84.192 126.634 85.84C126.634 87.472 124.954 88.192 123.338 88.192C121.338 88.192 119.802 87.088 119.674 85.344L121.05 85.248C121.21 86.272 122.042 86.944 123.338 86.944C124.202 86.944 125.258 86.656 125.258 85.776C125.258 84.752 124.042 84.64 123.066 84.4C121.498 84.032 119.898 83.584 119.898 81.968C119.882 80.352 121.194 79.328 123.13 79.328C124.826 79.328 126.202 80.4 126.474 82.032L125.098 82.128Z" fill="black"></path><path d="M45.624 40.184C48.312 40.184 49.528 38.968 49.56 36.28H52.696V59H48.696V43.288H43.832V40.184H45.624ZM66.0973 59.512C60.2093 59.512 56.6893 54.84 56.6893 47.672C56.6893 40.44 60.2093 35.768 66.0973 35.768C71.9853 35.768 75.5053 40.44 75.5053 47.672C75.5053 54.84 71.9853 59.512 66.0973 59.512ZM60.8493 47.672C60.8493 53.016 62.7373 55.96 66.0973 55.96C69.4893 55.96 71.3453 53.016 71.3453 47.672C71.3453 42.296 69.4893 39.32 66.0973 39.32C62.7373 39.32 60.8493 42.296 60.8493 47.672ZM87.7535 59.512C81.8655 59.512 78.3455 54.84 78.3455 47.672C78.3455 40.44 81.8655 35.768 87.7535 35.768C93.6415 35.768 97.1615 40.44 97.1615 47.672C97.1615 54.84 93.6415 59.512 87.7535 59.512ZM82.5055 47.672C82.5055 53.016 84.3935 55.96 87.7535 55.96C91.1455 55.96 93.0015 53.016 93.0015 47.672C93.0015 42.296 91.1455 39.32 87.7535 39.32C84.3935 39.32 82.5055 42.296 82.5055 47.672ZM99.9378 48.024H105.89V42.104H109.25V48.024H115.17V51.384H109.25V57.336H105.89V51.384H99.9378V48.024Z" fill="black"></path><rect x="148" y="87" width="59" height="2" rx="1" transform="rotate(-90 148 87)" fill="#C785EC"></rect><path d="M172.352 84.288C172.64 85.824 173.728 86.88 175.536 86.88C177.008 86.88 178 86.272 178 85.136C178 83.984 177.008 83.28 174.72 82.688C172.832 82.208 171.184 81.312 171.184 79.488C171.184 77.584 172.72 76.384 174.896 76.384C177.328 76.384 178.944 77.904 179.168 79.984L177.76 80.08C177.568 78.656 176.464 77.696 174.88 77.696C173.552 77.696 172.592 78.384 172.592 79.488C172.592 80.88 174.208 81.264 175.696 81.68C177.792 82.256 179.408 83.28 179.408 85.008C179.408 87.088 177.488 88.192 175.44 88.192C172.944 88.192 171.12 86.656 170.944 84.384L172.352 84.288ZM188.375 88H187.127V86.56C186.695 87.664 185.687 88.192 184.567 88.192C182.679 88.192 181.751 86.768 181.751 84.976V79.52H183.063V84.576C183.063 86.16 183.591 87.024 184.839 87.024C186.183 87.024 187.063 86.16 187.063 84.576V79.52H188.375V88ZM196.502 82.352C196.31 81.232 195.398 80.576 194.358 80.576C192.774 80.576 191.862 81.776 191.862 83.76C191.862 85.744 192.774 86.944 194.358 86.944C195.446 86.944 196.374 86.224 196.566 85.008L197.958 85.088C197.686 87.008 196.166 88.192 194.358 88.192C192.006 88.192 190.486 86.448 190.486 83.76C190.486 81.072 192.006 79.328 194.358 79.328C196.102 79.328 197.654 80.448 197.878 82.256L196.502 82.352ZM205.315 82.352C205.123 81.232 204.211 80.576 203.171 80.576C201.587 80.576 200.675 81.776 200.675 83.76C200.675 85.744 201.587 86.944 203.171 86.944C204.259 86.944 205.187 86.224 205.379 85.008L206.771 85.088C206.499 87.008 204.979 88.192 203.171 88.192C200.819 88.192 199.299 86.448 199.299 83.76C199.299 81.072 200.819 79.328 203.171 79.328C204.915 79.328 206.467 80.448 206.691 82.256L205.315 82.352ZM208.111 83.76C208.111 81.072 209.631 79.328 211.983 79.328C213.871 79.328 215.519 80.592 215.663 83.584L215.679 84.176H209.503C209.631 85.92 210.511 86.944 211.983 86.944C212.911 86.944 213.743 86.4 214.127 85.504L215.535 85.6C215.039 87.2 213.615 88.192 211.983 88.192C209.631 88.192 208.111 86.448 208.111 83.76ZM209.535 83.008H214.239C213.999 81.216 213.039 80.576 211.983 80.576C210.623 80.576 209.743 81.472 209.535 83.008ZM222.614 82.128C222.422 81.152 221.462 80.576 220.502 80.576C219.542 80.576 218.774 81.072 218.774 81.888C218.789 82.72 219.862 83.072 220.822 83.28C222.758 83.648 224.15 84.192 224.15 85.84C224.15 87.472 222.47 88.192 220.854 88.192C218.854 88.192 217.318 87.088 217.19 85.344L218.566 85.248C218.726 86.272 219.558 86.944 220.854 86.944C221.718 86.944 222.774 86.656 222.774 85.776C222.774 84.752 221.558 84.64 220.582 84.4C219.014 84.032 217.414 83.584 217.414 81.968C217.398 80.352 218.71 79.328 220.646 79.328C222.342 79.328 223.718 80.4 223.99 82.032L222.614 82.128ZM231.082 82.128C230.89 81.152 229.93 80.576 228.97 80.576C228.01 80.576 227.242 81.072 227.242 81.888C227.258 82.72 228.33 83.072 229.29 83.28C231.226 83.648 232.618 84.192 232.618 85.84C232.618 87.472 230.938 88.192 229.322 88.192C227.322 88.192 225.786 87.088 225.658 85.344L227.034 85.248C227.194 86.272 228.026 86.944 229.322 86.944C230.186 86.944 231.242 86.656 231.242 85.776C231.242 84.752 230.026 84.64 229.05 84.4C227.482 84.032 225.882 83.584 225.882 81.968C225.866 80.352 227.178 79.328 229.114 79.328C230.81 79.328 232.186 80.4 232.458 82.032L231.082 82.128ZM235.255 78.944C235.255 77.552 235.975 76.64 237.527 76.64H238.807V77.792H237.511C236.951 77.792 236.567 78.24 236.567 78.944V79.52H238.711V80.688H236.567V88H235.255V80.688H234.103V79.52H235.255V78.944ZM247.5 88H246.252V86.56C245.82 87.664 244.812 88.192 243.692 88.192C241.804 88.192 240.876 86.768 240.876 84.976V79.52H242.188V84.576C242.188 86.16 242.716 87.024 243.964 87.024C245.308 87.024 246.188 86.16 246.188 84.576V79.52H247.5V88ZM250.251 76.64H251.563V86.304C251.563 86.672 251.739 86.832 252.107 86.832H252.827V88H251.915C250.907 88 250.251 87.344 250.251 86.368V76.64ZM266.301 76.64V77.952H262.765V88H261.421V77.952H257.869V76.64H266.301ZM267.938 79.52H269.09L269.138 81.088C269.426 80.016 270.066 79.52 271.17 79.52H271.986V80.672H271.17C269.874 80.672 269.25 81.472 269.25 82.944V88H267.938V79.52ZM273.626 79.52H274.938V88H273.626V79.52ZM273.594 78.192V76.672H274.97V78.192H273.594ZM277.438 90.4V79.52H278.622L278.67 80.816C279.134 79.856 280.062 79.328 281.294 79.328C283.822 79.328 284.958 81.408 284.958 83.76C284.958 86.112 283.822 88.192 281.294 88.192C280.11 88.192 279.214 87.696 278.75 86.784V90.4H277.438ZM278.606 83.76C278.606 85.376 279.342 86.928 281.07 86.928C282.83 86.928 283.55 85.408 283.55 83.76C283.55 82.112 282.83 80.576 281.07 80.576C279.342 80.576 278.606 82.144 278.606 83.76ZM291.879 82.128C291.687 81.152 290.727 80.576 289.767 80.576C288.807 80.576 288.039 81.072 288.039 81.888C288.055 82.72 289.127 83.072 290.087 83.28C292.023 83.648 293.415 84.192 293.415 85.84C293.415 87.472 291.735 88.192 290.119 88.192C288.119 88.192 286.583 87.088 286.455 85.344L287.831 85.248C287.991 86.272 288.823 86.944 290.119 86.944C290.983 86.944 292.039 86.656 292.039 85.776C292.039 84.752 290.823 84.64 289.847 84.4C288.279 84.032 286.679 83.584 286.679 81.968C286.663 80.352 287.975 79.328 289.911 79.328C291.607 79.328 292.983 80.4 293.255 82.032L291.879 82.128Z" fill="black"></path><path d="M190.728 43.32C191.208 38.968 194.44 35.768 199.24 35.768C203.752 35.768 207.048 38.616 207.048 42.488C207.048 45.912 204.328 48.024 201.096 49.944C199.688 50.744 195.496 53.4 195.368 55.448H207.176V59H190.472C190.472 52.216 194.728 49.4 198.984 46.872C201.288 45.432 202.888 44.056 202.888 42.456C202.888 40.632 201.384 39.32 199.24 39.32C196.936 39.32 195.368 40.824 194.888 43.576L190.728 43.32ZM219.41 59.512C213.522 59.512 210.002 54.84 210.002 47.672C210.002 40.44 213.522 35.768 219.41 35.768C225.298 35.768 228.818 40.44 228.818 47.672C228.818 54.84 225.298 59.512 219.41 59.512ZM214.162 47.672C214.162 53.016 216.05 55.96 219.41 55.96C222.802 55.96 224.658 53.016 224.658 47.672C224.658 42.296 222.802 39.32 219.41 39.32C216.05 39.32 214.162 42.296 214.162 47.672ZM241.066 59.512C235.178 59.512 231.658 54.84 231.658 47.672C231.658 40.44 235.178 35.768 241.066 35.768C246.954 35.768 250.474 40.44 250.474 47.672C250.474 54.84 246.954 59.512 241.066 59.512ZM235.818 47.672C235.818 53.016 237.706 55.96 241.066 55.96C244.458 55.96 246.314 53.016 246.314 47.672C246.314 42.296 244.458 39.32 241.066 39.32C237.706 39.32 235.818 42.296 235.818 47.672ZM253.25 48.024H259.202V42.104H262.562V48.024H268.482V51.384H262.562V57.336H259.202V51.384H253.25V48.024Z" fill="black"></path><rect x="315" y="87" width="59" height="2" rx="1" transform="rotate(-90 315 87)" fill="#C785EC"></rect><path d="M342.76 76.64C345.144 76.64 346.632 77.952 346.632 80.064C346.632 81.424 345.72 82.416 344.68 82.704C345.816 82.896 346.312 83.472 346.424 84.656L346.728 88H345.368L345.096 84.784C345 83.76 344.296 83.408 342.632 83.408H339.816V88H338.472V76.64H342.76ZM339.816 82.096H342.76C344.344 82.096 345.224 81.36 345.224 80.032C345.224 78.704 344.344 77.952 342.76 77.952H339.816V82.096ZM348.615 82.016C348.951 80.368 350.263 79.328 352.071 79.328C354.263 79.328 355.479 80.608 355.479 82.88V86.288C355.479 86.672 355.639 86.832 356.007 86.832H356.343V88H355.783C354.919 88 354.167 87.712 354.183 86.672C353.815 87.472 352.855 88.192 351.511 88.192C349.831 88.192 348.471 87.296 348.471 85.792C348.471 84.048 349.799 83.6 351.655 83.232L354.167 82.752C354.151 81.28 353.463 80.576 352.071 80.576C350.983 80.576 350.263 81.136 350.007 82.128L348.615 82.016ZM349.847 85.792C349.847 86.48 350.439 87.04 351.687 87.024C353.095 87.024 354.199 86.032 354.199 84.064V83.92L352.167 84.272C350.903 84.496 349.847 84.592 349.847 85.792ZM358.317 77.6H359.629V79.52H361.885V80.688H359.629V85.76C359.629 86.48 359.981 86.832 360.653 86.832H361.869V88H360.653C359.149 88 358.317 87.2 358.317 85.76V80.688H357.069V79.52H358.317V77.6ZM363.86 79.52H365.172V88H363.86V79.52ZM363.828 78.192V76.672H365.204V78.192H363.828ZM367.673 79.52H368.873L368.921 80.976C369.353 79.84 370.361 79.328 371.529 79.328C373.465 79.328 374.392 80.752 374.392 82.544V88H373.081V82.928C373.081 81.36 372.553 80.496 371.257 80.496C369.881 80.496 368.985 81.36 368.985 82.928V88H367.673V79.52ZM379.982 87.552C377.662 87.552 376.174 85.824 376.174 83.44C376.174 81.056 377.694 79.328 379.982 79.328C381.118 79.328 382.046 79.968 382.414 80.88V79.52H383.678V87.168C383.678 89.392 382.158 90.592 379.95 90.592C378.142 90.592 376.782 89.6 376.414 88.128L377.79 88.032C378.126 88.848 378.862 89.344 379.95 89.344C381.454 89.344 382.366 88.672 382.366 87.456V86.048C381.854 87.056 380.894 87.552 379.982 87.552ZM377.55 83.44C377.55 85.104 378.462 86.304 379.982 86.304C381.438 86.304 382.366 85.088 382.382 83.44C382.414 81.792 381.486 80.576 379.982 80.576C378.462 80.576 377.55 81.776 377.55 83.44ZM391.207 82.128C391.015 81.152 390.055 80.576 389.095 80.576C388.135 80.576 387.367 81.072 387.367 81.888C387.383 82.72 388.455 83.072 389.415 83.28C391.351 83.648 392.743 84.192 392.743 85.84C392.743 87.472 391.063 88.192 389.447 88.192C387.447 88.192 385.911 87.088 385.783 85.344L387.159 85.248C387.319 86.272 388.151 86.944 389.447 86.944C390.311 86.944 391.367 86.656 391.367 85.776C391.367 84.752 390.151 84.64 389.175 84.4C387.607 84.032 386.007 83.584 386.007 81.968C385.991 80.352 387.303 79.328 389.239 79.328C390.935 79.328 392.311 80.4 392.583 82.032L391.207 82.128Z" fill="black"></path><path d="M355.48 36.28V51.128H357.976V54.68H355.48V59H351.448V54.68H339.832V51.128L350.776 36.28H355.48ZM344.408 51.128H351.448V41.688L344.408 51.128ZM360.157 54.744H364.637V59H360.157V54.744ZM383.025 36.28V39.832H372.881L372.049 46.04C373.105 44.664 375.185 43.864 377.265 43.864C381.553 43.864 384.561 47.032 384.561 51.448C384.561 56.248 381.137 59.512 376.145 59.512C371.313 59.512 367.729 56.792 367.377 52.92L371.505 52.696C371.857 54.744 373.841 55.96 376.081 55.96C378.641 55.96 380.433 54.104 380.433 51.512C380.433 48.824 378.641 47.064 375.857 47.064C374.001 47.064 372.401 47.96 371.825 49.368H367.697L369.457 36.28H383.025Z" fill="black"></path></svg>