<svg xmlns="http://www.w3.org/2000/svg" width="40" height="48" viewBox="0 0 40 48" fill="none"><path d="M24.6997 0.800781C14.7979 0.800781 9.39844 3.08806 9.39844 4.26349C9.39844 5.43892 14.7996 7.7262 24.6997 7.7262C34.5998 7.7262 40.0009 5.43892 40.0009 4.26349C40.0009 3.08806 34.6015 0.800781 24.6997 0.800781ZM24.6997 4.89417C20.3107 4.89417 17.2364 4.58141 15.5488 4.26349C17.2364 3.94558 20.3107 3.63281 24.6997 3.63281C29.0904 3.63281 32.1647 3.94558 33.8522 4.26349C32.1647 4.58141 29.0904 4.89417 24.6997 4.89417Z" fill="#FCA353"></path><path d="M39.999 43.7366V6.65723C37.0845 8.49255 30.8705 9.44458 24.6978 9.44458C18.5251 9.44458 12.3111 8.49255 9.39658 6.65723V15.973C9.39658 16.2652 9.24707 16.5384 9.00305 16.6948C8.75731 16.8512 8.45142 16.8769 8.18162 16.7549L4.14494 14.9179C3.29602 14.533 2.31306 14.5123 1.45039 14.8612L0 15.4472L9.11131 23.7508C9.29175 23.9141 9.39658 24.1461 9.39658 24.3918V43.7366C9.39658 44.912 14.7977 47.1993 24.6978 47.1993C26.5297 47.1993 28.2052 47.1202 29.7226 46.9845V31.0354C29.7226 30.5611 30.1075 30.1762 30.5818 30.1762C31.0561 30.1762 31.4411 30.5611 31.4411 31.0354V46.7989C32.8038 46.6253 34.0153 46.4088 35.0619 46.1631V17.3839C35.0619 16.9096 35.4468 16.5247 35.9211 16.5247C36.3954 16.5247 36.7803 16.9096 36.7803 17.3839V45.6905C38.8923 45.0203 39.999 44.2659 39.999 43.7366Z" fill="#FCA353"></path></svg>