<svg xmlns="http://www.w3.org/2000/svg" width="24" height="24" viewBox="0 0 24 24" fill="none"><path d="M23.28 21.0002L20.88 11.4002C20.64 10.3202 19.68 9.6002 18.6 9.6002H16.8V7.8002C16.8 7.4402 16.56 7.2002 16.2 7.2002H13.8C13.44 7.2002 13.2 7.4402 13.2 7.8002V9.6002H10.8V7.8002C10.8 7.4402 10.56 7.2002 10.2 7.2002H7.80005C7.44005 7.2002 7.20005 7.4402 7.20005 7.8002V9.6002H5.52005C4.32005 9.6002 3.36005 10.3202 3.12005 11.4002L0.720048 21.0002C0.360048 22.5602 1.56005 24.0002 3.12005 24.0002H21C22.44 24.0002 23.64 22.5602 23.28 21.0002ZM12 21.6002C9.36005 21.6002 7.20005 19.4402 7.20005 16.8002C7.20005 14.1602 9.36005 12.0002 12 12.0002C14.64 12.0002 16.8 14.1602 16.8 16.8002C16.8 19.4402 14.64 21.6002 12 21.6002Z" fill="#011232"></path><path d="M12.0001 19.1999C13.3256 19.1999 14.4001 18.1254 14.4001 16.7999C14.4001 15.4744 13.3256 14.3999 12.0001 14.3999C10.6746 14.3999 9.6001 15.4744 9.6001 16.7999C9.6001 18.1254 10.6746 19.1999 12.0001 19.1999Z" fill="#011232"></path><path d="M12 0C5.4 0 0 2.16 0 4.92V7.2C0 7.92 0.6 8.4 1.2 8.4H4.56C5.52 8.4 6.12 7.44 5.64 6.6C5.28 5.76 5.88 4.8 6.84 4.8H17.28C18.24 4.8 18.84 5.76 18.36 6.6C17.88 7.44 18.48 8.4 19.44 8.4H22.8C23.52 8.4 24 7.8 24 7.2V4.92C24 2.16 18.6 0 12 0Z" fill="#011232"></path></svg>