<svg xmlns="http://www.w3.org/2000/svg" width="40" height="40" viewBox="0 0 40 40" fill="none"><path d="M39.9309 0.561817C39.7909 0.221846 39.4581 0 39.0909 0C3.80914 0 0 14.6218 0 20.909C0 23.1709 0.501817 25.2836 1.49275 27.1872C1.64548 27.4818 1.94727 27.669 2.27821 27.6763C2.59091 27.6672 2.92005 27.5109 3.08548 27.2218C5.46732 23.1054 12.2127 12.9454 23.3528 7.54729C23.8091 7.32911 24.3546 7.51635 24.5709 7.9655C24.7891 8.41823 24.6 8.96368 24.1491 9.18186C23.3091 9.58916 22.5018 10.0328 21.7109 10.4927C21.4091 10.6691 21.1164 10.8564 20.8201 11.04C20.3746 11.3164 19.9346 11.5981 19.5055 11.8891C19.0783 12.1764 18.6564 12.4709 18.2418 12.7727C18.1127 12.8673 17.9891 12.9636 17.8618 13.06C6.77453 21.3218 0 34.5017 0 39.0909C0 39.5927 0.407301 40 0.909118 40C1.41094 40 1.81824 39.5927 1.81824 39.0909C1.81824 37.6254 2.81642 34.6546 4.70548 31.1109C7.44732 33.3527 11.1364 34.5455 15.4546 34.5455C27.1291 34.5455 29.5746 23.4364 30.8873 17.4673C32.6545 9.43456 36.5436 4.74187 39.7327 1.55096C39.9945 1.29094 40.0709 0.901788 39.9309 0.561817Z" fill="#549F57"></path></svg>