<svg xmlns="http://www.w3.org/2000/svg" width="20" height="18" viewBox="0 0 20 18" fill="none"><path d="M0.231943 8.73851L9.0058 17.5124C9.07995 17.5871 9.16817 17.6465 9.26537 17.687C9.36257 17.7275 9.46682 17.7483 9.57212 17.7483C9.67741 17.7483 9.78167 17.7275 9.87886 17.687C9.97606 17.6465 10.0643 17.5871 10.1384 17.5124L18.9123 8.73851C19.0608 8.58907 19.1442 8.38691 19.1442 8.17619C19.1442 7.96547 19.0608 7.76331 18.9123 7.61387C18.8381 7.53911 18.7499 7.47977 18.6527 7.43927C18.5555 7.39878 18.4513 7.37793 18.346 7.37793C18.2407 7.37793 18.1364 7.39878 18.0392 7.43927C17.942 7.47977 17.8538 7.53911 17.7797 7.61387L9.57212 15.8214L1.36457 7.61387C1.29042 7.53911 1.2022 7.47977 1.105 7.43927C1.00781 7.39878 0.903552 7.37793 0.798256 7.37793C0.69296 7.37793 0.588706 7.39878 0.491508 7.43927C0.394311 7.47977 0.306093 7.53911 0.231943 7.61387C0.083385 7.76331 0 7.96547 0 8.17619C0 8.38691 0.083385 8.58907 0.231943 8.73851Z" fill="#A2E033"></path><path d="M9.0058 10.1344C9.07995 10.2092 9.16817 10.2685 9.26537 10.309C9.36257 10.3495 9.46682 10.3704 9.57212 10.3704C9.67741 10.3704 9.78167 10.3495 9.87886 10.309C9.97606 10.2685 10.0643 10.2092 10.1384 10.1344L18.9123 1.36058C19.0608 1.21114 19.1442 1.00898 19.1442 0.79826C19.1442 0.58754 19.0608 0.38538 18.9123 0.235936C18.8381 0.161176 18.7499 0.101837 18.6527 0.0613426C18.5555 0.0208483 18.4513 0 18.346 0C18.2407 0 18.1364 0.0208483 18.0392 0.0613426C17.942 0.101837 17.8538 0.161176 17.7797 0.235936L9.57212 8.44348L1.36457 0.235936C1.29042 0.161176 1.2022 0.101837 1.105 0.0613426C1.00781 0.0208483 0.903552 0 0.798256 0C0.69296 0 0.588706 0.0208483 0.491508 0.0613426C0.394311 0.101837 0.306093 0.161176 0.231943 0.235936C0.083385 0.38538 0 0.58754 0 0.79826C0 1.00898 0.083385 1.21114 0.231943 1.36058L9.0058 10.1344Z" fill="#A2E033"></path></svg>