<svg xmlns="http://www.w3.org/2000/svg" width="40" height="40" viewBox="0 0 40 40" fill="none"><path d="M36.8746 16.4844C35.5657 16.4844 34.4428 17.2936 33.9782 18.4377H21.1738V20.7816H33.9782C34.4428 21.9257 35.5657 22.7349 36.8746 22.7349C38.5978 22.7349 39.9998 21.3329 39.9998 19.6096C39.9998 17.8864 38.5978 16.4844 36.8746 16.4844Z" fill="#A8A8FF"></path><path d="M27.8816 9.54199V6.02086C28.2596 5.8685 28.6137 5.63958 28.9196 5.3337C30.138 4.11516 30.138 2.13243 28.9196 0.913899C27.7011 -0.304633 25.7183 -0.304633 24.4999 0.913899C23.9096 1.50418 23.5846 2.28901 23.5846 3.12384C23.5846 3.95867 23.9097 4.74342 24.4999 5.33378C24.8058 5.63966 25.1598 5.86858 25.5378 6.02086V7.7056L21.1738 8.78131V11.1953L27.8816 9.54199Z" fill="#A8A8FF"></path><path d="M30.2675 15.7898L32.4513 13.6059C32.8263 13.7656 33.2385 13.854 33.6711 13.854C35.3944 13.854 36.7964 12.452 36.7964 10.7288C36.7964 9.0055 35.3944 7.60352 33.6711 7.60352C31.9479 7.60352 30.5459 9.0055 30.5459 10.7288C30.5459 11.1613 30.6343 11.5736 30.7939 11.9485L29.2966 13.4458H21.1738V15.7898H30.2675Z" fill="#A8A8FF"></path><path d="M25.5377 31.5132V33.1979C25.1597 33.3502 24.8056 33.5792 24.4997 33.885C23.9094 34.4753 23.5844 35.2601 23.5844 36.0949C23.5844 36.9298 23.9095 37.7145 24.4997 38.3049C25.109 38.9141 25.9093 39.2187 26.7096 39.2187C27.5099 39.2187 28.3102 38.9141 28.9195 38.3048C30.138 37.0863 30.138 35.1035 28.9195 33.885C28.6136 33.5791 28.2596 33.3502 27.8816 33.1978V29.6768L21.1738 28.0234V30.4375L25.5377 31.5132Z" fill="#A8A8FF"></path><path d="M29.2966 25.7726L30.7939 27.2699C30.6343 27.6449 30.5459 28.0572 30.5459 28.4897C30.5459 30.213 31.9479 31.615 33.6711 31.615C35.3944 31.615 36.7964 30.213 36.7964 28.4897C36.7964 26.7665 35.3944 25.3645 33.6711 25.3645C33.2385 25.3645 32.8263 25.4529 32.4513 25.6126L30.2675 23.4287H21.1738V25.7726H29.2966Z" fill="#A8A8FF"></path><path d="M14.425 1.41031C14.4247 1.41023 14.4244 1.41023 14.424 1.41016V1.41031C11.9961 1.41031 10.0209 3.38554 10.0209 5.81347C10.0209 7.0227 10.5011 8.15037 11.3734 8.98864L9.74912 10.6785C8.55926 9.53485 7.84694 8.03927 7.70482 6.41703C5.83155 6.92277 4.44878 8.63611 4.44878 10.6671V14.6146C4.44878 16.4686 5.95718 17.977 7.81116 17.977V20.3209C4.66474 20.3209 2.10485 17.761 2.10485 14.6146V14.241C0.875303 14.7137 0 15.9064 0 17.3004V21.919C0 23.7258 1.46988 25.1958 3.27674 25.1958H4.44871V28.5522C4.44871 30.5832 5.83147 32.2965 7.70474 32.8022C7.84686 31.1801 8.5591 29.6844 9.74904 28.5407L11.3733 30.2306C10.5011 31.0689 10.0208 32.1965 10.0208 33.4058C10.0208 35.8337 11.996 37.8089 14.4239 37.8089V37.8092C14.4242 37.8091 14.4246 37.809 14.425 37.8089C16.8523 37.8089 18.8271 35.8342 18.8271 33.4068V5.81253C18.8272 3.38515 16.8523 1.41031 14.425 1.41031Z" fill="#A8A8FF"></path></svg>