<svg xmlns="http://www.w3.org/2000/svg" width="40" height="37" viewBox="0 0 40 37" fill="none"><path d="M19.9886 3.31937C11.2698 -4.30645 0.184037 2.39382 0.00225422 11.4771C-0.0440704 13.792 0.62416 16.0469 1.95429 18.1257H10.5758L12.1093 15.5698C12.5546 14.8278 13.6322 14.8039 14.1027 15.5437L17.3381 20.6279L22.0544 10.6715C22.4657 9.80279 23.6915 9.77521 24.1451 10.6176L28.1879 18.1257H38.023C45.3085 6.73911 30.9098 -6.23264 19.9886 3.31937Z" fill="#90BFFF"></path><path d="M26.457 19.8535L23.181 13.7695L18.5484 23.5493C18.1543 24.3813 16.9951 24.4536 16.5008 23.6767L13.1441 18.4019L12.2447 19.9009C12.0329 20.2538 11.6515 20.4697 11.2399 20.4697H3.80859C4.04154 20.7135 2.8 19.4745 19.1627 35.7525C19.6197 36.2072 20.3585 36.2073 20.8156 35.7525C36.9266 19.7249 35.9373 20.7131 36.1697 20.4697H27.4887C27.0575 20.4698 26.6613 20.2331 26.457 19.8535Z" fill="#90BFFF"></path></svg>