<svg xmlns="http://www.w3.org/2000/svg" width="40" height="56" viewBox="0 0 40 56" fill="none"><path d="M39.0798 55.1726H38.7906C38.2828 55.1726 37.8711 54.7609 37.8711 54.253C37.8711 53.7452 38.2828 53.3335 38.7906 53.3335H39.0798C39.5876 53.3335 39.9994 53.7452 39.9994 54.253C39.9994 54.7609 39.5876 55.1726 39.0798 55.1726Z" fill="#C785EC"></path><path d="M34.2529 55.1726H0.91954C0.411724 55.1726 0 54.7609 0 54.253C0 53.7452 0.411724 53.3335 0.91954 53.3335H34.2529C34.7607 53.3335 35.1724 53.7452 35.1724 54.253C35.1724 54.7609 34.7607 55.1726 34.2529 55.1726Z" fill="#C785EC"></path><path d="M32.2078 51.4943H28.8421C28.2385 51.4943 27.8022 50.9236 27.9534 50.3392C28.4371 48.4711 28.7633 46.6334 28.7729 46.5115C29.3268 43.2582 29.389 41.0266 29.389 38.3908C29.389 38.354 29.3867 38.3172 29.3821 38.2805C29.3142 35.4931 28.899 32.7855 28.3131 30.1724C27.8222 27.9828 26.6953 24.926 24.9867 21.8609C24.4754 20.9439 23.5424 19.5354 22.5533 18.3023C19.9867 15.0976 16.789 12.5425 13.0487 10.708C12.4337 10.4079 11.7246 10.8574 11.7246 11.5333V50.5747C11.7246 51.0825 11.3129 51.4943 10.805 51.4943H7.47171C6.9639 51.4943 6.55217 51.0825 6.55217 50.5747V18.2759H4.97424C4.48436 18.2759 4.05677 17.906 4.02539 17.4171C3.99102 16.8815 4.41482 16.4368 4.94298 16.4368H6.55217V0.950803C6.55217 0.460918 6.92206 0.0333319 7.41091 0.0019526C7.94665 -0.0324152 8.39137 0.391378 8.39137 0.919539V3.71954C30.6047 8.12586 38.9502 29.7722 33.0953 50.8162C32.9841 51.2159 32.6226 51.4943 32.2078 51.4943Z" fill="#C785EC"></path><path d="M20.7576 21.3795H14.482C13.9742 21.3795 13.5625 20.9678 13.5625 20.4599V14.6841C13.5625 13.9567 14.3687 13.5149 14.9795 13.9097C17.5091 15.5445 19.6847 17.5649 21.4827 19.8938C21.9509 20.5 21.5235 21.3795 20.7576 21.3795Z" fill="#C785EC"></path><path d="M25.0156 29.4252H14.482C13.9742 29.4252 13.5625 29.0134 13.5625 28.5056V24.1378C13.5625 23.63 13.9742 23.2183 14.482 23.2183H23.1338C23.4746 23.2183 23.7862 23.4072 23.9471 23.7077C24.7114 25.1341 25.3599 26.6406 25.8885 28.2135C26.0886 28.8088 25.6436 29.4252 25.0156 29.4252Z" fill="#C785EC"></path><path d="M26.6008 37.4715H14.482C13.9742 37.4715 13.5625 37.0598 13.5625 36.552V32.1842C13.5625 31.6764 13.9742 31.2646 14.482 31.2646H26.0041C26.4409 31.2646 26.8181 31.5715 26.9059 31.9994C27.2048 33.456 27.4099 34.9559 27.5188 36.4912C27.5565 37.0217 27.1324 37.4715 26.6008 37.4715Z" fill="#C785EC"></path><path d="M27.5982 40.2514C27.5572 41.7204 27.4318 43.2138 27.2209 44.7249C27.1574 45.1792 26.768 45.5174 26.3093 45.5174H14.482C13.9742 45.5174 13.5625 45.1057 13.5625 44.5979V40.2301C13.5625 39.7223 13.9742 39.3105 14.482 39.3105H26.6786C27.1948 39.3105 27.6127 39.7354 27.5982 40.2514Z" fill="#C785EC"></path><path d="M26.527 48.4769C26.348 49.2562 26.1465 50.0385 25.922 50.8233C25.8087 51.2195 25.4484 51.4944 25.0363 51.4944H14.482C13.9742 51.4944 13.5625 51.0827 13.5625 50.5748V48.276C13.5625 47.7682 13.9742 47.3564 14.482 47.3564H25.6293C26.2182 47.3564 26.6588 47.903 26.527 48.4769Z" fill="#C785EC"></path></svg>